<?xml version="1.0" encoding="utf-8"?>
<!-- Generator: Adobe Illustrator 25.0.1, SVG Export Plug-In . SVG Version: 6.00 Build 0)  -->
<svg version="1.1" id="Capa_1" xmlns="http://www.w3.org/2000/svg" xmlns:xlink="http://www.w3.org/1999/xlink" x="0px" y="0px"
	 viewBox="0 0 170.3 39.3" style="enable-background:new 0 0 170.3 39.3;" xml:space="preserve">
<style type="text/css">
	.st0{fill:#17AB6F;}
</style>
<g>
	<path class="st0" d="M2.72,4.8h4.32v22.4H2.72V4.8z"/>
	<path class="st0" d="M12,4.8h10.4c5.63,0,7.49,3.33,7.49,7.01c0,2.53-1.44,5.44-4.35,6.46l4.35,8.93h-4.86l-4.19-8.35h-4.51v8.35
		H12V4.8z M22.46,14.75c2.21,0,2.94-1.41,2.94-2.94c0-1.41-0.64-2.91-2.94-2.91h-6.14v5.86H22.46z"/>
	<path class="st0" d="M34.05,4.8h4.32v22.4h-4.32V4.8z"/>
	<path class="st0" d="M42.05,21.44l3.94-1.47c0.96,2.08,2.72,3.52,4.9,3.52s3.62-0.93,3.62-2.72c0-1.89-2.11-2.59-4.54-3.39
		c-3.26-1.09-7.04-2.34-7.04-6.78c0-3.36,2.75-6.18,7.58-6.18c4,0,6.62,2.24,7.46,5.18l-3.87,1.28c-0.61-1.34-1.76-2.37-3.84-2.37
		c-1.89,0-2.98,0.77-2.98,2.14c0,1.41,1.86,2.02,4.06,2.75c3.33,1.12,7.52,2.53,7.52,7.36c0,4.35-3.55,6.82-8.1,6.82
		C46.53,27.58,43.33,25.25,42.05,21.44z"/>
	<path class="st0" d="M76.38,17.73h-9.38v9.47h-4.32V4.8h4.32v8.83h9.38V4.8h4.32v22.4h-4.32V17.73z"/>
	<path class="st0" d="M93.18,4.8h15.29v4.1H97.5v4.7h6.46v4.1H97.5v5.41h11.65v4.1H93.18V4.8z"/>
	<path class="st0" d="M119.2,18.46L110.91,4.8h4.9l5.54,9.15l5.54-9.15h4.9l-8.29,13.66v8.74h-4.29V18.46z"/>
	<path class="st0" d="M133.85,4.8h15.29v4.1h-10.98v4.7h6.46v4.1h-6.46v5.41h11.65v4.1h-15.97V4.8z"/>
	<path class="st0" d="M152.22,21.44l3.94-1.47c0.96,2.08,2.72,3.52,4.9,3.52s3.62-0.93,3.62-2.72c0-1.89-2.11-2.59-4.54-3.39
		c-3.26-1.09-7.04-2.34-7.04-6.78c0-3.36,2.75-6.18,7.58-6.18c4,0,6.62,2.24,7.46,5.18l-3.87,1.28c-0.61-1.34-1.76-2.37-3.84-2.37
		c-1.89,0-2.98,0.77-2.98,2.14c0,1.41,1.86,2.02,4.06,2.75c3.33,1.12,7.52,2.53,7.52,7.36c0,4.35-3.55,6.82-8.1,6.82
		C156.7,27.58,153.5,25.25,152.22,21.44z"/>
</g>
</svg>
